<svg width="94" height="66" viewBox="0 0 94 66" fill="none" xmlns="http://www.w3.org/2000/svg">
<g clip-path="url(#clip0_44_5)">
<path d="M22.5993 60.1268H18.9725C18.8448 53.7975 18.4912 47.846 17.9134 42.2712H17.8814L12.3594 60.1268H9.59742L4.1086 42.2712H4.07615C3.66902 47.6253 3.41254 53.5767 3.30597 60.1268H-0.00117493C0.212439 52.1608 0.747202 44.6932 1.60335 37.7227H6.0987L11.3315 54.1846H11.3635L16.6285 37.7227H20.9299C21.8718 45.8864 22.4278 53.3562 22.5986 60.1268M38.3327 43.5975C36.8555 51.8826 34.9073 57.9035 32.4893 61.6596C30.605 64.5537 28.541 66.0006 26.2935 66.0006C25.6943 66.0006 24.9554 65.814 24.0786 65.4434V63.4461C24.5071 63.5111 25.0096 63.5455 25.5875 63.5455C26.6362 63.5455 27.4812 63.2459 28.124 62.648C28.8942 61.9193 29.2792 61.1002 29.2792 60.1927C29.2792 59.5729 28.9789 58.3008 28.3805 56.3767L24.3998 43.5975H27.9629L30.8198 53.155C31.4617 55.3251 31.7295 56.8399 31.6222 57.7035C33.1849 53.3887 34.2764 48.6864 34.8974 43.5975H38.3324" fill="#00758F"/>
<path d="M54.221 53.9177C54.221 55.8176 53.5458 57.3774 52.1996 58.5978C50.8526 59.813 49.0427 60.4221 46.7765 60.4221C44.6568 60.4221 42.6025 59.7211 40.6126 58.3301L41.5434 56.4057C43.2557 57.2908 44.8057 57.7325 46.1969 57.7325C47.5021 57.7325 48.5236 57.4324 49.2626 56.839C50 56.2414 50.442 55.4081 50.442 54.351C50.442 53.0207 49.5445 51.8837 47.8981 50.9297C46.378 50.0672 43.3405 48.2669 43.3405 48.2669C41.6945 47.0258 40.8694 45.6937 40.8694 43.4994C40.8694 41.6844 41.4845 40.2175 42.7139 39.1015C43.9457 37.983 45.535 37.4238 47.4812 37.4238C49.4931 37.4238 51.3224 37.979 52.9701 39.085L52.133 41.0079C50.7235 40.3898 49.3333 40.0797 47.9625 40.0797C46.8503 40.0797 45.9934 40.3556 45.3957 40.9112C44.7951 41.4616 44.4235 42.1701 44.4235 43.0337C44.4235 44.3605 45.3405 45.5114 47.0332 46.4839C48.5723 47.3467 51.6845 49.1819 51.6845 49.1819C53.3774 50.4208 54.221 51.7419 54.221 53.9177Z" fill="#F29111"/>
<path fill-rule="evenodd" clip-rule="evenodd" d="M60.705 55.6453C59.827 54.1849 59.3874 51.8413 59.3874 48.6098C59.3874 42.9685 61.0465 40.1458 64.3635 40.1458C66.0976 40.1458 67.3706 40.8211 68.1846 42.1699C69.0614 43.6308 69.5009 45.9542 69.5009 49.1405C69.5009 54.827 67.8417 57.6716 64.5248 57.6716C62.791 57.6716 61.5178 56.9968 60.705 55.6453ZM73.61 60.6676L69.6269 58.6368C69.9815 58.3361 70.3183 58.0117 70.6233 57.6361C72.3145 55.5809 73.1607 52.5385 73.1607 48.5107C73.1607 41.0988 70.3464 37.3906 64.7179 37.3906C61.9569 37.3906 59.8052 38.3306 58.2646 40.213C56.5729 42.2708 55.7281 45.3019 55.7281 49.3068C55.7281 53.245 56.4765 56.134 57.9747 57.9693C59.3397 59.6279 61.4042 60.4585 64.1676 60.4585C65.1989 60.4585 66.1449 60.3272 67.0047 60.0647L72.1919 63.1855L73.6064 60.6673" fill="#F29111"/>
<path d="M86.6126 60.1268H76.3083V37.7227H79.7758V57.3708H86.6126V60.1268ZM89.0854 60.1245H89.6599V57.8451H90.4117V57.3796H88.3044V57.8451H89.0854V60.1245ZM93.4573 60.1245H93.9988V57.3796H93.1843L92.5214 59.2505L91.7997 57.3796H91.015V60.1245H91.5272V58.0353H91.5563L92.3122 60.1245H92.7026L93.4573 58.0353V60.1245Z" fill="#F29111"/>
<path fill-rule="evenodd" clip-rule="evenodd" d="M90.9651 30.2186C88.8694 30.1644 87.2465 30.3804 85.8853 30.9765C85.4925 31.1388 84.865 31.1388 84.8112 31.6532C85.0219 31.8692 85.0473 32.2209 85.2319 32.5198C85.5453 33.0614 86.0941 33.7909 86.5925 34.171C87.1423 34.6045 87.6923 35.036 88.269 35.4146C89.2896 36.0674 90.442 36.4447 91.4357 37.0945C92.0135 37.4731 92.5875 37.9598 93.1654 38.3671C93.4524 38.5834 93.6341 38.936 94.0022 39.0698V38.9879C93.8176 38.7449 93.7663 38.3931 93.5839 38.1209C93.3224 37.8522 93.0601 37.6069 92.7978 37.3375C92.038 36.2819 91.0942 35.3624 90.0755 34.6045C89.237 34.0074 87.4031 33.195 87.0641 32.1964L87.0108 32.1412C87.5872 32.0863 88.269 31.8692 88.8185 31.7052C89.7074 31.4622 90.5192 31.5171 91.4357 31.2742C91.8551 31.165 92.2741 31.0289 92.6951 30.8958V30.6503C92.2211 30.1644 91.882 29.5136 91.3848 29.0538C90.0503 27.8631 88.5824 26.6999 87.0641 25.724C86.2513 25.1826 85.204 24.8325 84.3394 24.371C84.027 24.2082 83.5038 24.128 83.3198 23.8558C82.8482 23.2605 82.5852 22.4766 82.2456 21.7716C81.4871 20.2845 80.7525 18.6338 80.0991 17.0613C79.628 16.0062 79.3398 14.9511 78.7636 13.9762C76.0656 9.37321 73.1341 6.58677 68.6303 3.85227C67.6615 3.2829 66.5096 3.03941 65.28 2.74174C64.6244 2.71327 63.9702 2.66058 63.3158 2.63411C62.8961 2.44382 62.4766 1.92913 62.1107 1.6854C60.6176 0.71147 56.7703 -1.39946 55.6698 1.38823C54.9626 3.14879 56.7173 4.88039 57.3196 5.77416C57.7645 6.39598 58.3412 7.10095 58.6541 7.80368C58.8374 8.26392 58.89 8.75214 59.0741 9.2386C59.4926 10.4295 59.8847 11.7563 60.4357 12.8666C60.7227 13.4352 61.0366 14.0316 61.403 14.5435C61.6144 14.8432 61.9799 14.9766 62.0586 15.4655C61.6934 16.0062 61.6648 16.8183 61.4555 17.4955C60.5134 20.5547 60.8794 24.344 62.2153 26.5905C62.6333 27.2673 63.6297 28.7564 64.9649 28.1865C66.1432 27.7003 65.8814 26.1573 66.2214 24.8045C66.2999 24.4774 66.2473 24.2626 66.4038 24.0466V24.1013C66.7702 24.8579 67.1379 25.5871 67.4779 26.3476C68.291 27.6726 69.7037 29.0536 70.8827 29.9731C71.5095 30.4623 72.0072 31.3001 72.7926 31.5988V31.5169H72.7413C72.5836 31.2739 72.3484 31.1648 72.1387 30.9762C71.6676 30.4888 71.1452 29.8929 70.7771 29.3518C69.6778 27.8364 68.7078 26.1573 67.8456 24.4249C67.4254 23.5838 67.0597 22.6644 66.7189 21.8258C66.5622 21.5024 66.5622 21.0137 66.2999 20.8518C65.9061 21.4464 65.3314 21.9616 65.0439 22.6903C64.5459 23.8555 64.4941 25.29 64.3093 26.7796C64.2052 26.8078 64.258 26.7796 64.2052 26.8333C63.3684 26.617 63.0802 25.7237 62.7653 24.9683C61.9799 23.0439 61.8479 19.9581 62.5297 17.738C62.712 17.1706 63.4999 15.3841 63.1843 14.8427C63.0259 14.3263 62.503 14.0311 62.2155 13.6235C61.8758 13.1091 61.5071 12.4608 61.2739 11.8912C60.6449 10.3759 60.3289 8.6967 59.6502 7.18136C59.3359 6.47639 58.7849 5.74544 58.3412 5.0969C57.8427 4.36596 57.2935 3.85177 56.9001 2.98647C56.7703 2.68805 56.5867 2.20034 56.7955 1.87669C56.8469 1.65968 56.9532 1.57802 57.1632 1.52383C57.5015 1.22591 58.4715 1.60424 58.8113 1.76656C59.7808 2.17162 60.5924 2.5527 61.403 3.12007C61.7702 3.39128 62.1628 3.90546 62.6333 4.04206H63.1843C64.0218 4.23011 64.9649 4.0945 65.7511 4.33924C67.1379 4.79923 68.3944 5.47574 69.5211 6.20693C72.95 8.45397 75.7779 11.649 77.6883 15.465C78.0031 16.0868 78.1354 16.656 78.4229 17.3042C78.9727 18.6333 79.6542 19.9868 80.203 21.2849C80.7525 22.5572 81.2771 23.8555 82.0638 24.9129C82.4554 25.4803 84.0267 25.7782 84.7339 26.0761C85.2566 26.3188 86.0694 26.5359 86.5409 26.8333C87.431 27.4007 88.3194 28.0514 89.1586 28.675C89.5766 28.9996 90.8861 29.6759 90.9651 30.2181" fill="#00758F"/>
<path fill-rule="evenodd" clip-rule="evenodd" d="M64.2572 6.69152C63.8952 6.6888 63.5344 6.73455 63.1838 6.82762V6.88181H63.2347C63.4461 7.31384 63.813 7.61401 64.0727 7.99234C64.2834 8.42562 64.4672 8.85714 64.6762 9.29092C64.7021 9.26419 64.7271 9.23598 64.7271 9.23598C65.0964 8.96627 65.2793 8.53375 65.2793 7.88296C65.1211 7.69217 65.0964 7.50413 64.9644 7.31384C64.8077 7.04388 64.4672 6.90853 64.2572 6.69152Z" fill="#00758F"/>
</g>
<defs>
<clipPath id="clip0_44_5">
<rect width="94" height="66" fill="white"/>
</clipPath>
</defs>
</svg>
