<svg width="110" height="104" viewBox="0 0 110 104" fill="none" xmlns="http://www.w3.org/2000/svg">
<path d="M107.221 15.3231L57.8554 100.021C56.8362 101.77 54.2177 101.78 53.1831 100.04L2.839 15.3313C1.71195 13.4349 3.40201 11.1379 5.64169 11.522L55.0598 19.9974C55.3751 20.0515 55.6978 20.051 56.0131 19.9958L104.398 11.5341C106.63 11.1438 108.328 13.423 107.221 15.3231Z" fill="url(#paint0_linear_2_226)"/>
<path d="M78.6003 0.405226L42.0685 7.27355C41.4681 7.38643 41.0235 7.87467 40.9873 8.46059L38.7401 44.877C38.6872 45.7347 39.5082 46.4004 40.3807 46.2073L50.5517 43.9551C51.5033 43.7445 52.3632 44.5487 52.1676 45.467L49.1458 59.6648C48.9425 60.6203 49.8775 61.4374 50.85 61.154L57.1321 59.3227C58.106 59.039 59.0418 59.8584 58.8358 60.8147L54.0336 83.1163C53.7331 84.5113 55.6669 85.2719 56.4734 84.076L57.0122 83.2772L86.7803 26.2759C87.2788 25.3215 86.4192 24.2332 85.3267 24.4355L74.8574 26.3742C73.8736 26.5562 73.0365 25.6771 73.3142 24.7536L80.1473 2.02507C80.4253 1.09995 79.5852 0.220081 78.6003 0.405226Z" fill="url(#paint1_linear_2_226)"/>
<defs>
<linearGradient id="paint0_linear_2_226" x1="1.60981" y1="8.49498" x2="59.7961" y2="90.8525" gradientUnits="userSpaceOnUse">
<stop stop-color="#41D1FF"/>
<stop offset="1" stop-color="#BD34FE"/>
</linearGradient>
<linearGradient id="paint1_linear_2_226" x1="52.2234" y1="2.26996" x2="62.4723" y2="75.5439" gradientUnits="userSpaceOnUse">
<stop stop-color="#FFEA83"/>
<stop offset="0.0833333" stop-color="#FFDD35"/>
<stop offset="1" stop-color="#FFA800"/>
</linearGradient>
</defs>
</svg>
